<svg xmlns="http://www.w3.org/2000/svg" viewBox="0 0 192 192">
  <rect width="192" height="192" rx="32" fill="#0f172a" />
  <path d="M96 36c-33.137 0-60 24.496-60 54.72 0 17.12 8.864 32.368 22.832 42.464L52 156l35.84-19.232A70.87 70.87 0 0 0 96 144.72c33.136 0 60-24.496 60-54.72C156 60.496 129.136 36 96 36Zm0 12.8c26.128 0 47.28 18.96 47.28 41.92 0 23.024-21.152 41.92-47.28 41.92-6.192 0-12.096-1.008-17.552-2.848L67.2 132l2.304-13.28C58.016 110.144 48.72 96.48 48.72 90.72 48.72 67.76 69.872 48.8 96 48.8Z" fill="#38bdf8" />
</svg>
