<svg xmlns="http://www.w3.org/2000/svg" viewBox="0 0 512 512">
  <rect width="512" height="512" rx="80" fill="#0f172a" />
  <path d="M256 96c-88.224 0-160 65.328-160 146.24 0 45.776 23.57 86.656 60.886 113.696L138 416l95.36-51.184A188.986 188.986 0 0 0 256 384.24c88.224 0 160-65.328 160-146.24C416 161.328 344.224 96 256 96Zm0 34.16c69.472 0 125.84 50.416 125.84 111.92 0 61.6-56.368 111.92-125.84 111.92-16.512 0-32.256-2.688-46.848-7.616L179.2 352l6.152-35.488C154.24 293.024 129.84 256.896 129.84 242.08 129.84 180.576 186.208 130.16 256 130.16Z" fill="#38bdf8" />
</svg>
